<svg xmlns="http://www.w3.org/2000/svg" viewBox="0 0 500 500"><g id="freepik--Dunes--inject-9"><g id="freepik--dunes--inject-9"><path d="M35.69,368.59v-195s51.31-35.19,90-65.43c41.46-32.41,61.18-24.89,95.88-2.13,31.61,20.74,91.79,59.61,91.79,59.61s18.75-12.44,38.75-23.83c29.7-16.91,43.1-17.69,81.83,11.31,20.84,15.6,29.51,23.17,29.51,23.17V368.59Z" style="fill:#e0e0e0"></path><path d="M374.15,195.47c3.78-10.22-11.78-30.93-3.73-33.39s20.48,2.44,16.92-7.5-7.7-15.53-3.6-19c7.53-6.44,22.66-.29,23.25-.06-20.08-9.71-33-5.91-54.45,6.29-20,11.39-38.75,23.83-38.75,23.83C339.74,183.08,370.37,205.69,374.15,195.47Z" style="fill:#ebebeb"></path><path d="M58.25,210.31c14.81-7.5,4.67-36.92,14.75-51.1s26.55-5.31,67.85-1.81,41.71-17.53,19.15-38.59c-20.42-19,1.81-30.9,14.95-32.49-14-.14-28.89,6.21-48.83,21.8-38.69,30.24-90,65.43-90,65.43v39.2S43.43,217.81,58.25,210.31Z" style="fill:#ebebeb"></path></g></g><g id="freepik--Floor--inject-9"><path id="freepik--floor--inject-9" d="M98.76,280.26c-83.52,48.22-83.52,126.41,0,174.63s218.94,48.22,302.47,0,83.52-126.41,0-174.63S182.29,232,98.76,280.26Z" style="fill:#ffbda7"></path></g><g id="freepik--Cloud--inject-9"><path id="freepik--cloud--inject-9" d="M446.35,75.13a12.84,12.84,0,0,0-4.41-.81c-1.42-.12-1.87-.4-2.15-.71a10.52,10.52,0,0,0-12.62-3.73c-.84-3.41-5-6.38-9.52-5.38.16-4.44-5.51-9.2-10.6-10.29-4.88-1-9.14-.6-11.92,2.61-3-5.82-14.67-7.46-21-4.38-3.64,1.77-6.72,3.59-8.23,6.92A13.85,13.85,0,0,0,364.53,66c-2.47-2.18-7.4-2.76-10.69-1.49-3.55,1.37-3.82,4-4,6.77a12.42,12.42,0,0,0-6.46-.12c-2.24.67-3.53,2.42-3.22,3.84-1.77-.1-6,1.33-5.5,3.2.54,2.1,5.36,1.88,7.16,1.82a33.93,33.93,0,0,0,5-.79,8,8,0,0,0,2.62.5c3.06,0,4.36-1.34,4.85-2.48,1.5,3.15,6.82,5.55,10.59,6.51,7.08,1.82,17.11.71,21.48-4.59a7.8,7.8,0,0,0,2.11,2.58,12.27,12.27,0,0,0,6.55,2.65c2.91.27,10.73.65,12.93-4,1.56,3.08,8.51,4.48,13.8,3.73a21.64,21.64,0,0,0,5.92-1.79,35.54,35.54,0,0,0,3.4-2c1-.63,1.51-.62,2.9-.2,3.63,1.09,7.85,1.54,11.55,0C448.5,78.86,449.12,76.38,446.35,75.13Z" style="fill:#f5f5f5"></path></g><g id="freepik--Sun--inject-9"><circle id="freepik--sun--inject-9" cx="86.66" cy="59.4" r="26.09" transform="translate(-16.62 78.67) rotate(-45)" style="fill:#ffbda7"></circle></g><g id="freepik--Shadows--inject-9"><path id="freepik--Shadow--inject-9" d="M191.19,363.55c-31.38,18.12-31.38,47.5,0,65.62s82.27,18.12,113.65,0,31.39-47.5,0-65.62S222.58,345.43,191.19,363.55Z" style="fill:#f0997a"></path><path id="freepik--shadow--inject-9" d="M288,364.05c-14.61,8.44-14.61,22.12,0,30.56s38.31,8.43,52.93,0,14.61-22.12,0-30.56S302.63,355.61,288,364.05Z" style="fill:#f0997a"></path><path id="freepik--shadow--inject-9" d="M161.07,413.33c-14.61,8.43-14.61,22.11,0,30.55s38.31,8.44,52.92,0,14.62-22.12,0-30.55S175.68,404.89,161.07,413.33Z" style="fill:#f0997a"></path></g><g id="freepik--Plants--inject-9"><g id="freepik--Grass--inject-9"><path d="M200.34,380.4c-.86-2.84-2.2-7.24-4.29-9.3-.53,6.17-1,14.5-4,20.11-3.75-9-7.56-19.43-15.25-25.89-1.53-1.39-3.28-2.74-5.34-3,4.69,10.59,8.94,22.15,9,33.83-7-12.05-15.18-25.21-28.8-30.41-1.65-.79-4.47-1-5,1.25-.17,1.11.72,2.08,1.54,2.86,7.46,7.16,16.27,15.38,20,25.27a47.36,47.36,0,0,0-34.49-5.56c-.64.15-1.43.49-1.42,1.14s.62.9,1.15,1.12c9.39,3.8,19.63,6.11,27.66,12.29-5-1.52-26.12,1.25-26.62,7.2,11.33,1.36,23,.88,34.09,4.32,4.77,1.25,9.74,2.89,14.73,2.21,5.2-.72,10.66-2.05,13.06-7.15C200.78,400.85,202.64,391.1,200.34,380.4Z" style="fill:#D14949"></path><path d="M200.34,380.4c-.86-2.84-2.2-7.24-4.29-9.3-.53,6.17-1,14.5-4,20.11-3.75-9-7.56-19.43-15.25-25.89-1.53-1.39-3.28-2.74-5.34-3,4.69,10.59,8.94,22.15,9,33.83-7-12.05-15.18-25.21-28.8-30.41-1.65-.79-4.47-1-5,1.25-.17,1.11.72,2.08,1.54,2.86,7.46,7.16,16.27,15.38,20,25.27a47.36,47.36,0,0,0-34.49-5.56c-.64.15-1.43.49-1.42,1.14s.62.9,1.15,1.12c9.39,3.8,19.63,6.11,27.66,12.29-5-1.52-26.12,1.25-26.62,7.2,11.33,1.36,23,.88,34.09,4.32,4.77,1.25,9.74,2.89,14.73,2.21,5.2-.72,10.66-2.05,13.06-7.15C200.78,400.85,202.64,391.1,200.34,380.4Z" style="fill:#fff;opacity:0.85"></path></g><g id="freepik--grass--inject-9"><path d="M295.89,339.84c.46-2.15,1.17-5.48,2.58-7.13.78,4.51,1.67,10.62,4.23,14.57,2.21-6.86,4.36-14.8,9.62-20a7.43,7.43,0,0,1,3.75-2.54c-2.79,8.1-5.2,16.89-4.48,25.5,4.43-9.33,9.61-19.54,19.32-24.23,1.16-.68,3.24-1,3.73.61.2.81-.4,1.58-.95,2.21-5.05,5.74-11,12.36-13.12,19.88a35.05,35.05,0,0,1,25.08-6.27c.48.07,1.08.27,1.11.75s-.4.71-.77.9c-6.68,3.39-14.09,5.74-19.62,10.8,3.55-1.43,19.34-.72,20.07,3.63-8.26,1.72-16.9,2.1-24.85,5.33-3.43,1.22-7,2.75-10.72,2.55-3.88-.2-8-.83-10.08-4.44C296.86,354.94,294.87,347.87,295.89,339.84Z" style="fill:#D14949"></path><path d="M295.89,339.84c.46-2.15,1.17-5.48,2.58-7.13.78,4.51,1.67,10.62,4.23,14.57,2.21-6.86,4.36-14.8,9.62-20a7.43,7.43,0,0,1,3.75-2.54c-2.79,8.1-5.2,16.89-4.48,25.5,4.43-9.33,9.61-19.54,19.32-24.23,1.16-.68,3.24-1,3.73.61.2.81-.4,1.58-.95,2.21-5.05,5.74-11,12.36-13.12,19.88a35.05,35.05,0,0,1,25.08-6.27c.48.07,1.08.27,1.11.75s-.4.71-.77.9c-6.68,3.39-14.09,5.74-19.62,10.8,3.55-1.43,19.34-.72,20.07,3.63-8.26,1.72-16.9,2.1-24.85,5.33-3.43,1.22-7,2.75-10.72,2.55-3.88-.2-8-.83-10.08-4.44C296.86,354.94,294.87,347.87,295.89,339.84Z" style="fill:#fff;opacity:0.85"></path></g></g><g id="freepik--rock-2--inject-9"><g id="freepik--Rock--inject-9"><path d="M334.41,376.26h0c0-6-5.75-15-19-15s-18.95,9-18.95,15c0,2.8,1.85,5.6,5.55,7.74,7.4,4.27,19.4,4.27,26.8,0,3.7-2.14,5.55-4.94,5.55-7.74Z" style="fill:#37474f"></path><path d="M313.3,366.25c-.28,3.41,5.09,6.69,7.55,7.79,1.88.85,10.64,3.15,10.58-.83a8.61,8.61,0,0,0-2.39-5.12,14.17,14.17,0,0,0-8.22-4.36C318.6,363.37,313.57,363,313.3,366.25Z" style="fill:#455a64"></path></g></g><g id="freepik--Cactus--inject-9"><g id="freepik--cactus--inject-9"><path d="M314.88,240.13c24.52-8.75,46.79-25.25,56.11-53.56,8.69-26.4,7.16-73.37-18.41-99.83s-60.74-11.21-58.41,21.49c1.47,20.7,16.13,42.69,23.27,60,7.58,18.38,6.63,37.61-7.51,48.19C309.93,216.41,302,233.21,314.88,240.13Z" style="fill:#D14949"></path><path d="M314.88,240.13c24.52-8.75,46.79-25.25,56.11-53.56,8.69-26.4,7.16-73.37-18.41-99.83s-60.74-11.21-58.41,21.49c1.47,20.7,16.13,42.69,23.27,60,7.58,18.38,6.63,37.61-7.51,48.19C309.93,216.41,302,233.21,314.88,240.13Z" style="opacity:0.15"></path><path d="M371,186.57a98.79,98.79,0,0,0,4.2-21.12c-5.58,22.64-20.18,39.77-27.07,45.32-8.45,6.81-18.16,6.28-19.57-1-1.17-6-2-12.78-6.41-19.71,0,10.53-3.72,20-12.21,26.36,0,0-7.92,16.8,4.95,23.72C339.4,231.38,361.67,214.88,371,186.57Z" style="opacity:0.15"></path><path d="M366.9,181.74c8.12-23.08,4.1-44.05,1-54.49-8.65-28.95-28.56-47.09-47.48-43.53a17.46,17.46,0,0,1,7.88-10.18c-.53-.08-1.07-.13-1.6-.18a18.48,18.48,0,0,0-7.34,10.35c-6.79-2.13-13.06-1.87-18.66.78-.45.58-.89,1.18-1.3,1.81l.83-.47c5.15-2.71,10.91-3.25,17.16-1.63a12.82,12.82,0,0,0-7.53,5.94c-6.66,10.49-5,30.82,1.46,45.65.78,1.78,1.63,3.68,2.53,5.69,7.61,16.94,16.61,42.26,7.24,57.84-.25,1-.55,2.05-.89,3,12.61-15.81,2.69-43.2-5.43-61.29-.9-2-1.76-3.91-2.53-5.68-6.2-14.31-7.93-34.64-1.53-44.71q3.21-5.07,8-5.73c-4.1,7.27-.51,30.51,8.14,51.37,6.31,15.21,18.53,53-4.15,75a117.41,117.41,0,0,1-14.85,12.31c-.07.44-.13.88-.18,1.34A117.12,117.12,0,0,0,323.38,212c23.12-22.43,10.76-60.67,4.38-76.07-9.4-22.66-11.88-45.22-7.94-50.93,14.92,8.46,31.91,43.32,32.62,67.13,0,1,.07,2,.1,3,.76,22.38,1.61,47.58-44.73,75.41.06.35.14.69.23,1,47.13-28.19,46.27-53.76,45.5-76.47,0-1-.07-2-.1-3-.7-23.67-17.38-58.15-32.35-67.5,18.32-3,37.42,14.79,45.83,42.93,5.06,17,15.94,74.81-55.73,109.82.24.25.49.5.76.74C340.12,224.26,358.6,205.31,366.9,181.74Z" style="opacity:0.1"></path><path d="M235.08,130.42c70.14-9.89,90.19,60.24,91.28,104.37,1.25,50.21-7.46,114.72-28.12,163.43h0c-1.55,5-5.59,9.91-12.16,14-17.61,10.88-46.67,11.75-64.9,1.93-9.11-4.9-13.79-11.55-14-18.33h0c-.42-14.2-17.25-69.26-26.49-108.3C167.73,232.69,161.37,140.81,235.08,130.42Z" style="fill:#D14949"></path><path d="M250.68,147.74c21.56,8.77,44.42,56.54,46.73,116.17,2.13,55.24-12.19,124.15-22.53,153.41a53.61,53.61,0,0,0,11.2-5.14h0c3.93-9.41,10.19-26.65,17.62-55.22C316.43,308,317,259.34,307.06,213.63,299.74,179.89,285.28,155.85,250.68,147.74Zm0,0c33.84-3.94,54.57,16.81,66.21,35.66C311,167.53,302.1,152.81,289,142.77,275.89,141.36,261.13,142.49,250.68,147.74ZM277,263.55c-2-49.9-15.58-92.59-26.3-115.81-4.47,23.2-1.62,51.44,4.11,90.15s8.26,66.15,4.39,109.21c-2.85,31.7-5.32,60.72-6.42,73.83,2.2,0,4.41-.17,6.6-.38,1-6.87,3.05-18.44,6.93-34.05C272.88,360,279,313.44,277,263.55Zm-53-41.66c3.42-39.64,15.86-61.5,26.65-74.15,0,0-37.59,23.07-42.85,77.08s16.42,103,21.23,138.07a336.82,336.82,0,0,1,2.65,55.41,67.49,67.49,0,0,0,9.3,1.94c.92-13.76,2.07-38.53.15-57.84C236.49,315.44,219.39,275.6,224,221.89Zm-34.88,63.3c9.07,31.24,20.16,78.22,23.14,95.71a239.76,239.76,0,0,1,2.86,29.2,36.71,36.71,0,0,0,6,4l.69.35c-.14-11-1.52-33.08-8.42-66.83-10.13-49.53-21.89-91.31-20.31-124.83s30.17-70.94,57.54-75.06c-29.48,1.1-52.69,17.37-65.2,46.41C172.09,225.23,182.56,262.51,189.15,285.19ZM257.6,130.07c-4,5.15-7.11,11.24-6.92,17.67,1.14-4.22,8.73-10.4,17-15.67A68.1,68.1,0,0,0,257.6,130.07Zm-6.92,17.67c-19.48-9.38-39-6-51.14-2a67.57,67.57,0,0,0-17.22,23.9C201.82,146.93,237,145.62,250.68,147.74Zm0,0c-1.82-7.45-7.53-13.25-14.2-17.5l-1.4.18a79.85,79.85,0,0,0-13.18,3A43.83,43.83,0,0,1,250.68,147.74Z" style="opacity:0.05"></path><path d="M285.63,412l.46.2.74-.48c4-9.59,10.11-26.71,17.36-54.62,12.48-48,13.61-96.3,3.36-143.55-4.05-18.68-9.79-32.27-18.06-42.77-9.39-11.91-22-19.6-38.7-23.51h-.19c-27.64,4.17-56.35,41.59-58,75.54-1.23,26.07,5.57,57,13.43,92.82,2.27,10.34,4.62,21,6.89,32.13,6.95,34,8.26,56.15,8.41,66.48l.5.25h.5c-.13-10.25-1.41-32.58-8.43-66.93-2.27-11.11-4.62-21.8-6.89-32.14-7.85-35.75-14.63-66.63-13.41-92.56,1.56-33,29-69.28,55.79-74.35-14.49,17.55-23.21,42.21-25.9,73.36-3,34.4,3,63.48,8.83,91.6,3.25,15.77,6.62,32.08,8.3,49,1.93,19.41.74,44.48-.15,57.72l.49.06.51,0c.89-13.26,2.08-38.42.14-57.92-1.68-17-5.06-33.31-8.31-49.11-5.79-28.05-11.77-57.06-8.82-91.31,2.7-31.2,11.46-55.83,26-73.25,5.91,13,23.56,56.3,25.92,114.89,2,50.69-4.18,96.67-10.68,122.81-3.86,15.57-5.91,27.14-6.94,34.09l.5.08.51-.05c1-6.95,3.07-18.44,6.9-33.88,6.52-26.2,12.75-72.3,10.71-123.09-2.35-58.45-19.89-101.78-25.91-115.06,30.22,7.43,46.7,27,55,65.27,10.22,47.1,9.09,95.24-3.34,143.09C295.82,385.33,289.57,402.55,285.63,412Z" style="opacity:0.1"></path><path d="M181.78,271c-11,8-28.22,7.66-28.79-11.55s16.64-60.19-11-73S85.58,202.7,86.69,240.08s16.84,65,46.21,71.61c29.88,6.68,57-9.15,61.66-15.13C197.05,285.84,192.24,272.31,181.78,271Z" style="fill:#D14949"></path><path d="M181.78,271c-11,8-28.22,7.66-28.79-11.55s16.64-60.19-11-73S85.58,202.7,86.69,240.08s16.84,65,46.21,71.61c29.88,6.68,57-9.15,61.66-15.13C197.05,285.84,192.24,272.31,181.78,271Z" style="opacity:0.15"></path><path d="M194.56,296.56c2.36-10.15-1.84-22.82-11.18-25.21,5.82,5,8.43,20.93-2.86,28.06-12,7.6-35.23,13.29-59.49,3.17-15.84-6.61-25.15-22.48-29.7-32.71,6.75,21.86,20.72,37.16,41.57,41.82C162.78,318.37,189.93,302.54,194.56,296.56Z" style="opacity:0.15"></path><path d="M195.16,289.33c-9.2,6.18-24.12,12-36.92,9.62-17-3.16-28.26-24.56-25.63-48.74.37-3.41.76-6.68,1.12-9.82,2.11-18,3.64-31.2-.42-41A15.25,15.25,0,0,1,143.45,205c8,9.83,6.57,28.2,5.93,33.59-.25,2.07-.56,4.23-.9,6.5-2,13.95-4.6,31.31,9.6,38.79a18,18,0,0,0,9,2c8.52-.25,17.33-5.51,23.25-9.91-.22-.27-.46-.54-.7-.79-7.93,5.83-21,13.16-31.12,7.82-13.58-7.14-11.19-23.4-9.08-37.75.34-2.29.65-4.45.9-6.53.65-5.5,2.14-24.21-6.14-34.35a16.17,16.17,0,0,0-9.91-5.87,22.09,22.09,0,0,1,17.72.58,19.49,19.49,0,0,1,3.49,2.2c-.21-.59-.43-1.16-.68-1.73a21,21,0,0,0-2.37-1.37,23.07,23.07,0,0,0-19.2-.32,17.23,17.23,0,0,1,8.89-11.25l-.17-.09-.88-.38a17.89,17.89,0,0,0-8.36,10c-.86-3.37-3.75-6.78-8.41-9.82-1-.69-2.18-1.34-3.36-2-.49.12-1,.25-1.45.39a42.13,42.13,0,0,1,4.27,2.41c4.81,3.14,7.64,6.63,8.15,10a11.28,11.28,0,0,0-9.3-3.44c-7.59.42-18.47,6.7-26.25,23.09a87.53,87.53,0,0,0-8.58,37.09c.39,2.8.88,5.53,1.45,8.18-1.75-16,1.85-31.82,8-44.84,7.59-16,18.09-22.12,25.39-22.52,3.91-.21,7.18,1.19,9.07,3.86-20.58,9.84-29.06,53.5-20.33,79.48,5.93,17.63,17.49,29.26,35.14,35.26q1.62,0,3.21,0c-19-5.6-31.26-17.3-37.4-35.55-8.62-25.65-.35-68.75,19.87-78.32,4.13,9.64,2.59,22.79.47,40.88-.37,3.13-.75,6.4-1.12,9.82-2.69,24.7,8.92,46.58,26.44,49.83,13.24,2.46,27.88-3.27,37.14-9.41C195.2,290.12,195.19,289.72,195.16,289.33Z" style="opacity:0.1"></path><path d="M343.51,55.7c-4.74-1-9.93-14.26-7-15.81s7.42,4.68,7.09,8.78c0,0,1.22-12.44,5.54-11.44s-2,12.77-2,12.77,6.28-6.31,8.92-3.68S349.83,57,343.51,55.7Z" style="fill:#455a64"></path><path d="M356.41,73.55c2.74-10.23-7-17.61-13-19.43S325.19,53,321.8,63.06c-3.18,9.38,4.59,13.56,13.93,16.39S353.85,83.11,356.41,73.55Z" style="fill:#D14949"></path><path d="M356.41,73.55c2.74-10.23-7-17.61-13-19.43S325.19,53,321.8,63.06c-3.18,9.38,4.59,13.56,13.93,16.39S353.85,83.11,356.41,73.55Z" style="fill:#fff;opacity:0.4"></path><path d="M356.41,73.55c2.74-10.23-7-17.61-13-19.43l-7.67,25.33C345.06,82.28,353.85,83.11,356.41,73.55Z" style="fill:#D14949"></path><path d="M356.41,73.55c2.74-10.23-7-17.61-13-19.43l-7.67,25.33C345.06,82.28,353.85,83.11,356.41,73.55Z" style="fill:#fff;opacity:0.2"></path><path d="M343.4,54.12c-1.54-.47-6.85,7.2-8.34,12.12s-2,12.4.67,13.21c0,0-7.69-1.41-3.82-14.16S343.4,54.12,343.4,54.12Z" style="fill:#D14949;opacity:0.30000000000000004"></path><path d="M343.4,54.12c-4.5-1.37-12.83,1.74-15.1,9.25s1.89,14.4,6.84,15.91c-8.1-2.46-12.77-8.35-10.2-16.83S338,52.49,343.4,54.12Z" style="fill:#D14949;opacity:0.30000000000000004"></path><path d="M343.4,54.12c1.55.47,1.7,9.79.21,14.71s-5.21,11.43-7.88,10.62c0,0,7.17,3.09,11-9.66S343.4,54.12,343.4,54.12Z" style="fill:#D14949"></path><path d="M343.4,54.12c4.51,1.36,9.71,8.57,7.43,16.08s-9.57,10.93-14.52,9.43c8.1,2.45,15.26.15,17.83-8.34S348.79,55.75,343.4,54.12Z" style="fill:#D14949"></path><path d="M343.4,54.12c1.55.47,1.7,9.79.21,14.71s-5.21,11.43-7.88,10.62c0,0,7.17,3.09,11-9.66S343.4,54.12,343.4,54.12Z" style="fill:#fff;opacity:0.4"></path><path d="M343.4,54.12c4.51,1.36,9.71,8.57,7.43,16.08s-9.57,10.93-14.52,9.43c8.1,2.45,15.26.15,17.83-8.34S348.79,55.75,343.4,54.12Z" style="fill:#fff;opacity:0.4"></path><path d="M96.54,182.86c-3.94,2.82-17.22-2.3-16.41-5.49s8.47-2.31,11.27.71c0,0-8.35-9.3-4.71-11.81s8.08,10.08,8.08,10.08-.41-8.89,3.31-9.07S101.79,179.11,96.54,182.86Z" style="fill:#455a64"></path><path d="M118.42,185.4c-5.7-8.93-17.73-6.72-23.12-3.52s-13.1,12.69-8,22c4.77,8.68,13.1,5.77,21.5.79S123.74,193.75,118.42,185.4Z" style="fill:#D14949"></path><path d="M118.42,185.4c-5.7-8.93-17.73-6.72-23.12-3.52s-13.1,12.69-8,22c4.77,8.68,13.1,5.77,21.5.79S123.74,193.75,118.42,185.4Z" style="fill:#fff;opacity:0.4"></path><path d="M118.42,185.4c-5.7-8.93-17.73-6.72-23.12-3.52l13.51,22.76C117.2,199.67,123.74,193.75,118.42,185.4Z" style="fill:#D14949"></path><path d="M118.42,185.4c-5.7-8.93-17.73-6.72-23.12-3.52l13.51,22.76C117.2,199.67,123.74,193.75,118.42,185.4Z" style="fill:#fff;opacity:0.2"></path><path d="M95.3,181.88c-1.39.82.69,9.91,3.31,14.33s7.79,9.86,10.2,8.43c0,0-6.23,4.72-13-6.75S95.3,181.88,95.3,181.88Z" style="fill:#D14949;opacity:0.30000000000000004"></path><path d="M95.3,181.88c-4,2.4-7.38,10.63-3.37,17.38s11.9,8.33,16.35,5.69c-7.28,4.32-14.78,3.79-19.3-3.83S90.46,184.75,95.3,181.88Z" style="fill:#D14949;opacity:0.30000000000000004"></path><path d="M95.3,181.88c1.39-.83,8.38,5.35,11,9.77s4.91,11.57,2.51,13c0,0,7.12-3.2.32-14.67S95.3,181.88,95.3,181.88Z" style="fill:#D14949"></path><path d="M95.3,181.88c4-2.41,12.87-1.38,16.88,5.37s1.6,14.44-2.85,17.08c7.28-4.32,10.41-11.15,5.89-18.78S100.15,179,95.3,181.88Z" style="fill:#D14949"></path><path d="M95.3,181.88c1.39-.83,8.38,5.35,11,9.77s4.91,11.57,2.51,13c0,0,7.12-3.2.32-14.67S95.3,181.88,95.3,181.88Z" style="fill:#fff;opacity:0.4"></path><path d="M95.3,181.88c4-2.41,12.87-1.38,16.88,5.37s1.6,14.44-2.85,17.08c7.28-4.32,10.41-11.15,5.89-18.78S100.15,179,95.3,181.88Z" style="fill:#fff;opacity:0.4"></path><g id="freepik--Flower--inject-9"><path d="M211.58,146.08c2.37-6.38.16-10.34-1.78-13.7-3.73-6.47-9.93-10.73-22.27-9s-15.34,1.21-16.48,3.09-.56,10.06,3.53,18.3c3.24,6.53,10.11,16.26,24.19,12.76A18.14,18.14,0,0,0,211.58,146.08Z" style="fill:#D14949"></path><path d="M211.58,146.08c2.37-6.38.16-10.34-1.78-13.7-3.73-6.47-9.93-10.73-22.27-9s-15.34,1.21-16.48,3.09-.56,10.06,3.53,18.3c3.24,6.53,10.11,16.26,24.19,12.76A18.14,18.14,0,0,0,211.58,146.08Z" style="fill:#fff;opacity:0.25"></path><path d="M238.24,135.86c-6.77-.7-12.42-4.83-14.57-8.05A22.93,22.93,0,0,1,224,101.3c7-10.2,13.09-11.45,15.28-11.64s8.69,5.15,14.25,12.47c4.42,5.8,10.09,16.27.7,27.33A18.08,18.08,0,0,1,238.24,135.86Z" style="fill:#D14949"></path><path d="M238.24,135.86c-6.77-.7-12.42-4.83-14.57-8.05A22.93,22.93,0,0,1,224,101.3c7-10.2,13.09-11.45,15.28-11.64s8.69,5.15,14.25,12.47c4.42,5.8,10.09,16.27.7,27.33A18.08,18.08,0,0,1,238.24,135.86Z" style="fill:#fff;opacity:0.25"></path><path d="M196.19,95.94c-3.3,7.3-5.92,14.1-4,24.34s14.19,21.73,28,13.94c15.47-8.75,8.83-25.19,3.87-29.95s-16.59-10.33-19.75-11.9C199.82,90.15,198,92,196.19,95.94Z" style="fill:#D14949"></path><path d="M196.19,95.94c-3.3,7.3-5.92,14.1-4,24.34s14.19,21.73,28,13.94c15.47-8.75,8.83-25.19,3.87-29.95s-16.59-10.33-19.75-11.9C199.82,90.15,198,92,196.19,95.94Z" style="fill:#fff;opacity:0.1"></path><path d="M213.56,140.63c-8.06-3.88-8.7-8.95-8.12-17.49.35-5.22.1-9.11,1.49-9.85s9.72.69,14.71,10.08C226.1,131.78,221.94,138.39,213.56,140.63Z" style="fill:#D14949"></path><path d="M213.56,140.63c-8.06-3.88-8.7-8.95-8.12-17.49.35-5.22.1-9.11,1.49-9.85s9.72.69,14.71,10.08C226.1,131.78,221.94,138.39,213.56,140.63Z" style="fill:#fff;opacity:0.30000000000000004"></path><path d="M233.74,130.66c2.19-8.67-1.29-12.41-8.22-17.44-4.23-3.08-7.05-5.76-8.51-5.17s-5.7,7.9-1.69,17.75C218.91,134.62,226.65,135.67,233.74,130.66Z" style="fill:#D14949"></path><path d="M233.74,130.66c2.19-8.67-1.29-12.41-8.22-17.44-4.23-3.08-7.05-5.76-8.51-5.17s-5.7,7.9-1.69,17.75C218.91,134.62,226.65,135.67,233.74,130.66Z" style="fill:#fff;opacity:0.35000000000000003"></path><path d="M219.72,152.58c-11.1,6-25.42-.1-30.58-9.39s-4.24-15.46-2.44-16.76c1.27-.91,4.58,2.16,10.75,3.26C202.1,130.52,223.47,133.6,219.72,152.58Z" style="fill:#D14949"></path><path d="M219.72,152.58c-11.1,6-25.42-.1-30.58-9.39s-4.24-15.46-2.44-16.76c1.27-.91,4.58,2.16,10.75,3.26C202.1,130.52,223.47,133.6,219.72,152.58Z" style="fill:#fff;opacity:0.4"></path><path d="M238.61,141.71c11.73-4.66,16.26-19.55,12.46-29.48S242,99.05,239.79,99.6c-1.51.39-1.28,4.9-4.4,10.33C233,114,221.67,132.38,238.61,141.71Z" style="fill:#D14949"></path><path d="M238.61,141.71c11.73-4.66,16.26-19.55,12.46-29.48S242,99.05,239.79,99.6c-1.51.39-1.28,4.9-4.4,10.33C233,114,221.67,132.38,238.61,141.71Z" style="fill:#fff;opacity:0.4"></path><path d="M235.13,150.18c9.38-7.35-2-19.71-6.88-24s-9.49-7.25-11.88-6.35-3,6.35-3.15,15.3c-.23,10.19,4.05,20.54,13.52,18.75C226.74,153.84,229.92,153.66,235.13,150.18Z" style="fill:#D14949"></path><path d="M235.13,150.18c9.38-7.35-2-19.71-6.88-24s-9.49-7.25-11.88-6.35-3,6.35-3.15,15.3c-.23,10.19,4.05,20.54,13.52,18.75C226.74,153.84,229.92,153.66,235.13,150.18Z" style="fill:#fff;opacity:0.5"></path><path d="M226.74,153.84c-6.28-7.42-16.42-8.56-25.79-3.61S185.67,160,185.6,161.81c-.12,2.77,3.61,3.55,11.12,5.62C205.82,169.94,225.31,173,226.74,153.84Z" style="fill:#D14949"></path><path d="M226.74,153.84c-6.28-7.42-16.42-8.56-25.79-3.61S185.67,160,185.6,161.81c-.12,2.77,3.61,3.55,11.12,5.62C205.82,169.94,225.31,173,226.74,153.84Z" style="fill:#fff;opacity:0.6000000000000001"></path><path d="M235.13,150.18c-2.31-8.72,1.8-16.84,10-21s14.53-5.9,15.86-5c2.07,1.43.81,4.61-1.35,11.3C257,143.58,249.72,159.67,235.13,150.18Z" style="fill:#D14949"></path><path d="M235.13,150.18c-2.31-8.72,1.8-16.84,10-21s14.53-5.9,15.86-5c2.07,1.43.81,4.61-1.35,11.3C257,143.58,249.72,159.67,235.13,150.18Z" style="fill:#fff;opacity:0.6000000000000001"></path><path d="M229.13,147c-8,3.45-14.59,8.75-10,12.79,3.48,3,12.41,5.06,18.43,2.07a15.8,15.8,0,0,0,9.17-13.14C247.3,144,237.8,143.27,229.13,147Z" style="fill:#D14949"></path><path d="M229.13,147c-8,3.45-14.59,8.75-10,12.79,3.48,3,12.41,5.06,18.43,2.07a15.8,15.8,0,0,0,9.17-13.14C247.3,144,237.8,143.27,229.13,147Z" style="fill:#fff;opacity:0.7000000000000001"></path></g><path d="M235.15,333.68a.79.79,0,0,1-.39-.11l-12.62-7.78a.74.74,0,0,1,.78-1.26L233.5,331l-4.32-9.67a.73.73,0,0,1,.38-1,.75.75,0,0,1,1,.37l5.29,11.87a.74.74,0,0,1-.19.86A.75.75,0,0,1,235.15,333.68Z" style="fill:#f5f5f5"></path><path d="M224.42,334.85a.74.74,0,0,1-.73-.66.75.75,0,0,1,.65-.82l10.73-1.17a.74.74,0,1,1,.16,1.47l-10.72,1.18Z" style="fill:#f5f5f5"></path><path d="M265.34,385.14a.74.74,0,0,1-.53-1.26l10.48-10.48a.74.74,0,0,1,1,0,.73.73,0,0,1,0,1l-8.78,8.79,10.41-2a.74.74,0,1,1,.28,1.45l-12.78,2.41Z" style="fill:#f5f5f5"></path><path d="M265.34,385.14h-.1a.74.74,0,0,1-.64-.83l1.33-10.71a.75.75,0,0,1,1.48.18l-1.34,10.71A.73.73,0,0,1,265.34,385.14Z" style="fill:#f5f5f5"></path><path d="M311.69,314.46A.74.74,0,0,1,311,314a.75.75,0,0,1,.14-.83l10.42-10.42a.74.74,0,1,1,1,1.05l-9,9,7-.6a.74.74,0,1,1,.13,1.47l-9,.77Z" style="fill:#f5f5f5"></path><path d="M311.69,314.46h-.1a.74.74,0,0,1-.64-.82L312.28,303a.74.74,0,0,1,1.46.18l-1.32,10.64A.74.74,0,0,1,311.69,314.46Z" style="fill:#f5f5f5"></path><path d="M135.74,230.75a.72.72,0,0,1-.54-.25.74.74,0,0,1-.1-.87l7.53-12.77a.74.74,0,0,1,1-.27.75.75,0,0,1,.27,1l-6.31,10.7,9.59-4.5a.74.74,0,0,1,1,.35.75.75,0,0,1-.36,1l-11.76,5.52A.72.72,0,0,1,135.74,230.75Z" style="fill:#f5f5f5"></path><path d="M135.74,230.75a.75.75,0,0,1-.73-.65l-1.39-10.7a.74.74,0,1,1,1.47-.2l1.39,10.71a.74.74,0,0,1-.64.83Z" style="fill:#f5f5f5"></path><path d="M108.82,272a.74.74,0,0,1-.49-.18l-11.19-9.72a.73.73,0,0,1-.08-1,.75.75,0,0,1,1-.08l9.38,8.14L104.8,258.9a.73.73,0,0,1,.53-.9.74.74,0,0,1,.9.53l3.3,12.57a.73.73,0,0,1-.32.82A.79.79,0,0,1,108.82,272Z" style="fill:#f5f5f5"></path><path d="M108.82,272h0L98,271.45a.74.74,0,0,1-.7-.78.76.76,0,0,1,.78-.7l10.78.58a.74.74,0,0,1,.7.77A.75.75,0,0,1,108.82,272Z" style="fill:#f5f5f5"></path><path d="M148.94,297.06a.76.76,0,0,1-.55-.24.74.74,0,0,1-.09-.88l7.47-12.8a.74.74,0,1,1,1.28.75l-6.26,10.72,9.57-4.54a.76.76,0,0,1,1,.35.75.75,0,0,1-.35,1L149.25,297A.71.71,0,0,1,148.94,297.06Z" style="fill:#f5f5f5"></path><path d="M148.93,297.06a.75.75,0,0,1-.73-.65l-1.43-10.7a.74.74,0,0,1,1.47-.19l1.43,10.7a.75.75,0,0,1-.64.83Z" style="fill:#f5f5f5"></path><path d="M351.06,204.2H351l-9.79-1.83a.59.59,0,0,1-.46-.5.56.56,0,0,1,.34-.58l10.4-4.57a.57.57,0,0,1,.75.29.58.58,0,0,1-.29.75l-8.72,3.83,8,1.5a.56.56,0,0,1-.1,1.12Z" style="fill:#f5f5f5"></path><path d="M341.26,202.37a.68.68,0,0,1-.27-.07.58.58,0,0,1-.23-.77l3.94-7.28a.57.57,0,0,1,1,.54l-3.94,7.28A.56.56,0,0,1,341.26,202.37Z" style="fill:#f5f5f5"></path><path d="M361.58,146.87a.63.63,0,0,1-.44-.19.6.6,0,0,1-.08-.71l6-10.39a.6.6,0,0,1,1,.6l-5,8.71,7.73-3.71a.6.6,0,0,1,.52,1.08l-9.49,4.55A.58.58,0,0,1,361.58,146.87Z" style="fill:#f5f5f5"></path><path d="M361.58,146.87a.6.6,0,0,1-.59-.52l-1.2-8.66a.6.6,0,0,1,.52-.67.59.59,0,0,1,.67.51l1.2,8.66a.61.61,0,0,1-.51.68Z" style="fill:#f5f5f5"></path><path d="M334.3,157.83a.81.81,0,0,1-.34-.08l-13.22-6.7a.74.74,0,0,1-.33-1,.75.75,0,0,1,1-.33l11.08,5.61-5.11-9.29a.73.73,0,0,1,.29-1,.74.74,0,0,1,1,.29L335,156.73a.74.74,0,0,1-.12.87A.74.74,0,0,1,334.3,157.83Z" style="fill:#f5f5f5"></path><path d="M323.7,159.9a.75.75,0,0,1-.72-.6.73.73,0,0,1,.58-.87l10.6-2.07a.73.73,0,0,1,.87.58.75.75,0,0,1-.59.87l-10.59,2.07Z" style="fill:#f5f5f5"></path><path d="M340.16,111.55a.65.65,0,0,1-.62-.45l-4-12.4a.65.65,0,0,1,.42-.82.65.65,0,0,1,.82.42l3.35,10.39,2.64-8.93a.64.64,0,0,1,.81-.44.65.65,0,0,1,.44.81l-3.23,11a.65.65,0,0,1-.62.46Z" style="fill:#f5f5f5"></path><path d="M340.16,111.55a.61.61,0,0,1-.36-.11L332,106.11a.65.65,0,0,1-.17-.91.64.64,0,0,1,.9-.17l7.85,5.33a.65.65,0,0,1-.37,1.19Z" style="fill:#f5f5f5"></path><circle cx="214.34" cy="250.79" r="24.86" transform="translate(-107.56 178.58) rotate(-36.84)" style="fill:#fff;opacity:0.30000000000000004"></circle><path d="M306.18,220.41a24.86,24.86,0,0,0,20.3,24.49c0-3.43,0-6.8-.12-10.11a170.82,170.82,0,0,0-5.08-37.19A24.86,24.86,0,0,0,306.18,220.41Z" style="fill:#fff;opacity:0.30000000000000004"></path><path d="M250.19,231.34c1.94,7.35-6,1.56-13.31,3.5s-11.38,10.86-13.32,3.51a13.77,13.77,0,0,1,26.63-7Z" style="fill:#263238"></path><path d="M319.32,210.4c2.49,7.19-5.83,2-13,4.51s-10.52,11.69-13,4.51a13.77,13.77,0,0,1,26-9Z" style="fill:#263238"></path><path d="M246.57,264.35c3.54-10.56,13.63-4.7,29.61-9.63,15.63-4.83,20.92-17.4,28.2-8.94,6.07,7.06,4.73,29.36-21,39.24C261.33,293.47,243.42,273.77,246.57,264.35Z" style="fill:#37474f"></path><path d="M276.18,254.72c-10.38,3.21-18.26,1.87-23.49,3.43l2.82,7.3s6.68,2.51,19.35-1c15.17-4.25,22.8-13.31,22.8-13.31l-1.07-7.56C291.85,245.49,286.1,251.65,276.18,254.72Z" style="fill:#fafafa"></path><path d="M253.14,274.41a29,29,0,0,0-3,1.79A28.8,28.8,0,0,0,283.36,285a47.77,47.77,0,0,0,9.95-5.17C282.35,270.15,266.77,267.43,253.14,274.41Z" style="fill:#ffbda7"></path></g></g><g id="freepik--rocks-1--inject-9"><g id="freepik--Rocks--inject-9"><path d="M236,417.24h0c0-7.67-7.36-19.17-24.23-19.17s-24.23,11.5-24.23,19.17c0,3.58,2.37,7.16,7.1,9.89,9.46,5.47,24.8,5.47,34.26,0,4.73-2.73,7.1-6.31,7.1-9.89Z" style="fill:#263238"></path><path d="M209,404.44c-.35,4.36,6.51,8.56,9.66,10,2.4,1.07,13.59,4,13.52-1.08,0-2.35-1.53-4.84-3.06-6.53a17.94,17.94,0,0,0-10.5-5.58C215.78,400.76,209.35,400.23,209,404.44Z" style="fill:#37474f"></path><path d="M202.07,425.61h0c0-6-5.75-15-18.95-15s-19,9-19,15c0,2.8,1.85,5.6,5.55,7.74,7.4,4.27,19.4,4.27,26.8,0,3.7-2.14,5.55-4.94,5.55-7.74Z" style="fill:#37474f"></path><path d="M181,415.6c-.27,3.41,5.1,6.69,7.56,7.8,1.88.84,10.63,3.14,10.57-.84a8.64,8.64,0,0,0-2.39-5.12,14.07,14.07,0,0,0-8.21-4.35C186.27,412.72,181.23,412.31,181,415.6Z" style="fill:#455a64"></path></g></g></svg>
